<?xml version="1.0" encoding="UTF-8" standalone="no"?>
<!-- Created with Inkscape (http://www.inkscape.org/) -->

<svg
   xmlns:dc="http://purl.org/dc/elements/1.1/"
   xmlns:cc="http://creativecommons.org/ns#"
   xmlns:rdf="http://www.w3.org/1999/02/22-rdf-syntax-ns#"
   xmlns:svg="http://www.w3.org/2000/svg"
   xmlns="http://www.w3.org/2000/svg"
   xmlns:sodipodi="http://sodipodi.sourceforge.net/DTD/sodipodi-0.dtd"
   xmlns:inkscape="http://www.inkscape.org/namespaces/inkscape"
   width="1000"
   height="1000"
   id="svg2"
   version="1.1"
   inkscape:version="0.48.4 r9939"
   sodipodi:docname="arrow-double-down.svg">
  <defs
     id="defs4" />
  <sodipodi:namedview
     id="base"
     pagecolor="#ffffff"
     bordercolor="#666666"
     borderopacity="1.0"
     inkscape:pageopacity="0.0"
     inkscape:pageshadow="2"
     inkscape:zoom="0.24748737"
     inkscape:cx="469.23514"
     inkscape:cy="637.67526"
     inkscape:document-units="px"
     inkscape:current-layer="layer1"
     showgrid="false"
     inkscape:window-width="1071"
     inkscape:window-height="641"
     inkscape:window-x="599"
     inkscape:window-y="240"
     inkscape:window-maximized="0" />
  <metadata
     id="metadata7">
    <rdf:RDF>
      <cc:Work
         rdf:about="">
        <dc:format>image/svg+xml</dc:format>
        <dc:type
           rdf:resource="http://purl.org/dc/dcmitype/StillImage" />
        <dc:title></dc:title>
      </cc:Work>
    </rdf:RDF>
  </metadata>
  <g
     inkscape:label="Layer 1"
     inkscape:groupmode="layer"
     id="layer1"
     transform="translate(0,-52.362183)">
    <path
       style="font-size:588.89385986px;font-style:normal;font-weight:normal;line-height:125%;letter-spacing:0px;word-spacing:0px;fill:#000000;fill-opacity:1;stroke:none;font-family:Sans"
       d="M 502.53271,552.1533 C 389.06755,665.00505 275.60239,777.85681 162.13723,890.70856 c 11.60873,19.29198 28.93194,25.796 41.21641,4.63979 C 303.08,796.16113 402.80635,696.9739 502.53271,597.78668 c 105.82691,105.2548 211.65382,210.5096 317.48073,315.7644 19.39754,-11.76293 25.91088,-28.70507 4.61306,-41.04525 C 717.2619,765.72166 609.89731,658.93748 502.53271,552.1533 z m 0,-360.98002 C 389.06756,304.04226 275.6024,416.91123 162.13725,529.78021 c 11.62449,19.28424 28.94094,25.71826 41.21795,4.58957 99.72583,-99.17048 199.45167,-198.34095 299.17751,-297.51143 105.82691,105.23757 211.65382,210.47514 317.48073,315.71271 19.42364,-11.73787 25.89374,-28.65643 4.61451,-40.99491 C 717.26288,404.7752 609.89779,297.97424 502.53271,191.17328 z"
       id="text2985-1"
       inkscape:connector-curvature="0" />
  </g>
</svg>
